<?xml version="1.0" encoding="iso-8859-1"?>
<!-- Generator: Adobe Illustrator 19.0.0, SVG Export Plug-In . SVG Version: 6.00 Build 0)  -->
<svg version="1.1" id="Layer_1" xmlns="http://www.w3.org/2000/svg" xmlns:xlink="http://www.w3.org/1999/xlink" x="0px" y="0px"
	 viewBox="0 0 511.999 511.999" style="enable-background:new 0 0 511.999 511.999;" xml:space="preserve">
<path style="fill:#CCD8E5;" d="M503.665,66.8v316.343c0,17.909-14.509,32.429-32.417,32.429H40.754
	c-17.909,0-32.418-14.52-32.418-32.429V66.8c0-17.909,14.509-32.429,32.418-32.429h430.493
	C489.155,34.371,503.665,48.891,503.665,66.8z"/>
<path style="fill:#DFEAF4;" d="M503.665,66.8v316.343c0,17.909-14.509,32.429-32.417,32.429H183.344l23.752-57.925L339.655,34.371
	h131.592C489.155,34.371,503.665,48.891,503.665,66.8z"/>
<path style="fill:#B8E9F2;" d="M503.665,66.8v290.847H8.337V66.8c0-17.909,14.509-32.429,32.418-32.429h430.493
	C489.155,34.371,503.665,48.891,503.665,66.8z"/>
<path style="fill:#D4F7FC;" d="M503.665,66.8v290.847H207.097L339.655,34.371h131.592C489.155,34.371,503.665,48.891,503.665,66.8z"
	/>
<polygon style="fill:#CCD8E5;" points="343.454,480.173 168.547,480.173 181.034,450.955 196.165,415.571 315.836,415.571 
	330.967,450.955 "/>
<polygon style="fill:#BAC6D1;" points="330.967,450.955 181.034,450.955 196.165,415.571 315.836,415.571 "/>
<rect x="144.323" y="117.138" style="fill:#CCCCCC;" width="272.405" height="209.281"/>
<rect x="144.323" y="117.138" style="fill:#609DC6;" width="272.405" height="51.493"/>
<rect x="95.275" y="68.101" style="fill:#F2F2F2;" width="272.405" height="209.281"/>
<rect x="95.275" y="68.101" style="fill:#F75757;" width="272.405" height="51.481"/>
<path d="M367.679,58.487H95.271c-4.602,0-8.332,3.731-8.332,8.332v209.28c0,4.602,3.731,8.332,8.332,8.332h272.408
	c4.603,0,8.332-3.731,8.332-8.332V66.819C376.011,62.217,372.281,58.487,367.679,58.487z M359.347,267.766H103.603V126.64h255.744
	L359.347,267.766L359.347,267.766z M359.347,109.976H103.603V75.151h255.744L359.347,109.976L359.347,109.976z"/>
<path d="M393.194,159.021c-4.603,0-8.332,3.731-8.332,8.332s3.729,8.332,8.332,8.332h15.203v51.936c0,4.602,3.729,8.332,8.332,8.332
	s8.332-3.731,8.332-8.332V115.865c0-4.602-3.729-8.332-8.332-8.332h-23.535c-4.603,0-8.332,3.731-8.332,8.332
	c0,4.602,3.729,8.332,8.332,8.332h15.203v34.824H393.194z"/>
<path d="M152.652,301.984c0-4.602-3.731-8.332-8.332-8.332s-8.332,3.731-8.332,8.332v23.163c0,4.602,3.731,8.332,8.332,8.332
	h272.408c4.603,0,8.332-3.731,8.332-8.332v-69.753c0-4.602-3.729-8.332-8.332-8.332c-4.603,0-8.332,3.731-8.332,8.332v61.421
	H152.652V301.984z"/>
<path d="M119.687,100.364c3.328-0.17,6.311-2.381,7.428-5.518c2.6-7.306-5.728-13.981-12.295-9.844
	c-3.385,2.133-4.764,6.538-3.24,10.23C112.931,98.432,116.196,100.543,119.687,100.364z"/>
<path d="M168.321,100.369c3.638-0.092,6.849-2.612,7.826-6.11c2.001-7.166-6.172-13.25-12.478-9.258
	c-3.384,2.142-4.767,6.527-3.24,10.23C161.751,98.364,164.9,100.455,168.321,100.369z"/>
<path d="M144.561,100.327c3.316-0.35,6.161-2.715,7.118-5.908c2.155-7.198-6.075-13.452-12.432-9.418
	c-3.406,2.162-4.739,6.502-3.248,10.23C137.413,98.583,140.922,100.711,144.561,100.327z"/>
<path d="M195.297,100.374h113.765c4.603,0,8.332-3.731,8.332-8.332c0-4.602-3.729-8.332-8.332-8.332H195.297
	c-4.602,0-8.332,3.731-8.332,8.332C186.965,96.643,190.696,100.374,195.297,100.374z"/>
<path d="M471.246,24.766H40.754C18.283,24.766,0,43.049,0,65.52v59.227c0,4.602,3.731,8.332,8.332,8.332s8.332-3.731,8.332-8.332
	V65.52c0-13.284,10.807-24.09,24.09-24.09h430.492c13.284,0,24.09,10.807,24.09,24.09v284.411h-52.21
	c-4.602,0-8.332,3.731-8.332,8.332s3.731,8.332,8.332,8.332h52.21v15.273c0,13.284-10.807,24.09-24.09,24.09h-155.41H196.164H40.754
	c-13.284,0-24.09-10.807-24.09-24.09v-15.273h398.688c4.602,0,8.332-3.731,8.332-8.332s-3.731-8.332-8.332-8.332H16.664V152.522
	c0-4.602-3.731-8.332-8.332-8.332S0,147.92,0,152.522v229.348c0,22.472,18.283,40.754,40.754,40.754H183.54l-20.494,47.945h-40.034
	c-4.602,0-8.332,3.731-8.332,8.332s3.731,8.332,8.332,8.332h265.975c4.602,0,8.332-3.731,8.332-8.332s-3.731-8.332-8.332-8.332
	h-40.034l-20.494-47.945h142.786c22.472,0,40.754-18.282,40.754-40.754V65.52C512,43.049,493.717,24.766,471.246,24.766z
	 M330.83,470.568H181.17l14.238-33.31h121.185L330.83,470.568z"/>
<path d="M253.972,376.221c-3.517,0.879-6.116,4.048-6.291,7.67c-0.364,7.534,9.106,11.629,14.33,6.171
	c2.663-2.782,3.078-7.177,0.913-10.385C261.01,376.772,257.341,375.379,253.972,376.221z"/>
<g>
</g>
<g>
</g>
<g>
</g>
<g>
</g>
<g>
</g>
<g>
</g>
<g>
</g>
<g>
</g>
<g>
</g>
<g>
</g>
<g>
</g>
<g>
</g>
<g>
</g>
<g>
</g>
<g>
</g>
</svg>
