<?xml version="1.0" encoding="iso-8859-1"?>
<!-- Generator: Adobe Illustrator 19.0.0, SVG Export Plug-In . SVG Version: 6.00 Build 0)  -->
<svg version="1.1" id="Layer_1" xmlns="http://www.w3.org/2000/svg" xmlns:xlink="http://www.w3.org/1999/xlink" x="0px" y="0px"
	 viewBox="0 0 512 512" style="enable-background:new 0 0 512 512;" xml:space="preserve">
<polygon style="fill:#0093C4;" points="44.334,287.127 97.25,234.21 256,392.96 414.75,234.21 467.666,287.127 256,498.793 "/>
<polygon style="fill:#00B4D7;" points="256,392.96 97.25,234.21 67.679,263.781 256,452.102 444.321,263.781 414.75,234.21 "/>
<path d="M256,512L31.128,287.127l66.122-66.122L256,379.755l158.75-158.75l66.122,66.122L256,512z M57.54,287.127L256,485.588
	l198.461-198.461l-39.711-39.711L256,406.166L97.25,247.416L57.54,287.127z"/>
<rect x="357.148" y="274.651" transform="matrix(-0.7071 -0.7071 0.7071 -0.7071 386.2899 836.9671)" style="fill:#FFFFFF;" width="18.676" height="127.659"/>
<polygon style="fill:#0093C4;" points="44.334,66.122 97.25,13.205 256,171.955 414.75,13.205 467.666,66.122 256,277.789 "/>
<polygon style="fill:#00B4D7;" points="256,171.955 97.25,13.205 67.679,42.777 256,231.097 444.321,42.777 414.75,13.205 "/>
<path d="M256,290.995L31.128,66.122L97.25,0L256,158.75L414.75,0l66.122,66.122L256,290.995z M57.54,66.122L256,264.583
	L454.461,66.122L414.75,26.411L256,185.161L97.25,26.411L57.54,66.122z"/>
<rect x="357.149" y="53.659" transform="matrix(-0.7071 -0.7071 0.7071 -0.7071 542.5557 459.7095)" style="fill:#FFFFFF;" width="18.676" height="127.659"/>
<g>
</g>
<g>
</g>
<g>
</g>
<g>
</g>
<g>
</g>
<g>
</g>
<g>
</g>
<g>
</g>
<g>
</g>
<g>
</g>
<g>
</g>
<g>
</g>
<g>
</g>
<g>
</g>
<g>
</g>
</svg>
