<?xml version="1.0" encoding="iso-8859-1"?>
<!-- Generator: Adobe Illustrator 19.0.0, SVG Export Plug-In . SVG Version: 6.00 Build 0)  -->
<svg fill="rgb(255,255,255)" width="50px" height="40px" version="1.1" id="Layer_1" xmlns="http://www.w3.org/2000/svg" xmlns:xlink="http://www.w3.org/1999/xlink" x="0px" y="0px"
	 viewBox="0 0 512.035 512.035" style="enable-background:new 0 0 512.035 512.035;" xml:space="preserve">
<g transform="translate(1 1)">
	<g>
		<g>
			<path d="M386.431,238.821c-3.413-1.707-6.827-0.853-9.387,1.707L255.017,362.555L132.991,240.528
				c-2.56-2.56-5.973-3.413-9.387-1.707c-3.413,0.853-5.12,4.267-5.12,7.68v136.533c0,2.56,0.853,4.267,2.56,5.973l128,119.467
				c1.707,1.707,4.267,2.56,5.973,2.56s4.267-0.853,5.973-2.56l128-119.467c1.707-1.707,2.56-3.413,2.56-5.973V246.501
				C391.551,243.088,389.844,240.528,386.431,238.821z M374.484,379.621L255.017,491.408L135.551,379.621v-112.64l113.493,113.493
				c3.413,3.413,8.533,3.413,11.947,0l113.493-113.493V379.621z"/>
			<path d="M386.431-0.112c-3.413-1.707-6.827-0.853-9.387,1.707L255.017,123.621L132.991,1.595c-2.56-2.56-5.973-3.413-9.387-1.707
				c-3.413,0.853-5.12,4.267-5.12,7.68v136.533c0,2.56,0.853,4.267,2.56,5.973l128,119.467c1.707,1.707,4.267,2.56,5.973,2.56
				s4.267-0.853,5.973-2.56l128-119.467c1.707-1.707,2.56-3.413,2.56-5.973V7.568C391.551,4.155,389.844,1.595,386.431-0.112z
				 M374.484,140.688L255.017,252.475L135.551,140.688V28.048l113.493,113.493c3.413,3.413,8.533,3.413,11.947,0L374.484,28.048
				V140.688z"/>
		</g>
	</g>
</g>
<g>
</g>
<g>
</g>
<g>
</g>
<g>
</g>
<g>
</g>
<g>
</g>
<g>
</g>
<g>
</g>
<g>
</g>
<g>
</g>
<g>
</g>
<g>
</g>
<g>
</g>
<g>
</g>
<g>
</g>
</svg>
